<mxfile host="app.diagrams.net" agent="Mozilla/5.0 (Windows NT 10.0; Win64; x64) AppleWebKit/537.36 (KHTML, like Gecko) Chrome/134.0.0.0 Safari/537.36" version="26.1.1">
  <diagram name="PÃ¡gina-1" id="B6OQTGkpnJlfvYSiuRSP">
    <mxGraphModel dx="2390" dy="1300" grid="1" gridSize="10" guides="1" tooltips="1" connect="1" arrows="1" fold="1" page="1" pageScale="1" pageWidth="1169" pageHeight="827" math="0" shadow="0">
      <root>
        <mxCell id="0" />
        <mxCell id="1" parent="0" />
        <mxCell id="spWjhORQWZopV1PiNU9U-16" value="" style="group;fontStyle=0" vertex="1" connectable="0" parent="1">
          <mxGeometry x="271" y="259" width="789" height="431" as="geometry" />
        </mxCell>
        <mxCell id="spWjhORQWZopV1PiNU9U-13" style="edgeStyle=orthogonalEdgeStyle;rounded=0;orthogonalLoop=1;jettySize=auto;html=1;" edge="1" parent="spWjhORQWZopV1PiNU9U-16" source="spWjhORQWZopV1PiNU9U-1">
          <mxGeometry relative="1" as="geometry">
            <mxPoint x="152.24261771747805" y="40.932258064516134" as="targetPoint" />
            <Array as="points">
              <mxPoint x="99" y="41" />
              <mxPoint x="99" y="41" />
            </Array>
          </mxGeometry>
        </mxCell>
        <mxCell id="spWjhORQWZopV1PiNU9U-1" value="" style="sketch=0;points=[[0,0,0],[0.25,0,0],[0.5,0,0],[0.75,0,0],[1,0,0],[0,1,0],[0.25,1,0],[0.5,1,0],[0.75,1,0],[1,1,0],[0,0.25,0],[0,0.5,0],[0,0.75,0],[1,0.25,0],[1,0.5,0],[1,0.75,0]];outlineConnect=0;fontColor=#232F3E;fillColor=#ED7100;strokeColor=#ffffff;dashed=0;verticalLabelPosition=bottom;verticalAlign=top;align=center;html=1;fontSize=12;fontStyle=0;aspect=fixed;shape=mxgraph.aws4.resourceIcon;resIcon=mxgraph.aws4.ec2;" vertex="1" parent="spWjhORQWZopV1PiNU9U-16">
          <mxGeometry x="-49.25778132482043" y="-13.29032258064516" width="98.23144453312052" height="98.23144453312052" as="geometry" />
        </mxCell>
        <mxCell id="spWjhORQWZopV1PiNU9U-2" value="EC2" style="text;html=1;align=center;verticalAlign=middle;resizable=0;points=[];autosize=1;strokeColor=none;fillColor=none;" vertex="1" parent="spWjhORQWZopV1PiNU9U-16">
          <mxGeometry x="-31.62649640861931" y="-55" width="50" height="30" as="geometry" />
        </mxCell>
        <mxCell id="spWjhORQWZopV1PiNU9U-3" value="" style="shape=image;html=1;verticalAlign=top;verticalLabelPosition=bottom;labelBackgroundColor=#ffffff;imageAspect=0;aspect=fixed;image=https://cdn1.iconfinder.com/data/icons/operating-system-flat-1/30/ubuntu-128.png" vertex="1" parent="spWjhORQWZopV1PiNU9U-16">
          <mxGeometry x="-65" y="209.16129032258067" width="129.71588188347965" height="129.71588188347965" as="geometry" />
        </mxCell>
        <mxCell id="spWjhORQWZopV1PiNU9U-4" value="SO Ubuntu" style="text;html=1;align=center;verticalAlign=middle;resizable=0;points=[];autosize=1;strokeColor=none;fillColor=none;" vertex="1" parent="spWjhORQWZopV1PiNU9U-16">
          <mxGeometry x="-50.517158818834794" y="334.2903225806452" width="80" height="30" as="geometry" />
        </mxCell>
        <mxCell id="spWjhORQWZopV1PiNU9U-5" value="" style="outlineConnect=0;dashed=0;verticalLabelPosition=bottom;verticalAlign=top;align=center;html=1;shape=mxgraph.aws3.cloudwatch;fillColor=#759C3E;gradientColor=none;" vertex="1" parent="spWjhORQWZopV1PiNU9U-16">
          <mxGeometry x="154.7613727055068" y="-13.29032258064516" width="103.89864325618517" height="129.3" as="geometry" />
        </mxCell>
        <mxCell id="spWjhORQWZopV1PiNU9U-15" style="edgeStyle=orthogonalEdgeStyle;rounded=0;orthogonalLoop=1;jettySize=auto;html=1;" edge="1" parent="spWjhORQWZopV1PiNU9U-16" source="spWjhORQWZopV1PiNU9U-6" target="spWjhORQWZopV1PiNU9U-7">
          <mxGeometry relative="1" as="geometry">
            <mxPoint x="580.4309656823624" y="52.054838709677426" as="targetPoint" />
            <Array as="points">
              <mxPoint x="555.2434158020751" y="52.054838709677426" />
              <mxPoint x="555.2434158020751" y="52.054838709677426" />
            </Array>
          </mxGeometry>
        </mxCell>
        <mxCell id="spWjhORQWZopV1PiNU9U-6" value="" style="sketch=0;points=[[0,0,0],[0.25,0,0],[0.5,0,0],[0.75,0,0],[1,0,0],[0,1,0],[0.25,1,0],[0.5,1,0],[0.75,1,0],[1,1,0],[0,0.25,0],[0,0.5,0],[0,0.75,0],[1,0.25,0],[1,0.5,0],[1,0.75,0]];outlineConnect=0;fontColor=#232F3E;fillColor=#E7157B;strokeColor=#ffffff;dashed=0;verticalLabelPosition=bottom;verticalAlign=top;align=center;html=1;fontSize=12;fontStyle=0;aspect=fixed;shape=mxgraph.aws4.resourceIcon;resIcon=mxgraph.aws4.sns;" vertex="1" parent="spWjhORQWZopV1PiNU9U-16">
          <mxGeometry x="366.33679169992024" y="-2.1677419354838676" width="98.23144453312052" height="98.23144453312052" as="geometry" />
        </mxCell>
        <mxCell id="spWjhORQWZopV1PiNU9U-7" value="" style="sketch=0;outlineConnect=0;fontColor=#232F3E;gradientColor=none;fillColor=#E7157B;strokeColor=none;dashed=0;verticalLabelPosition=bottom;verticalAlign=top;align=center;html=1;fontSize=12;fontStyle=0;aspect=fixed;pointerEvents=1;shape=mxgraph.aws4.email_notification;" vertex="1" parent="spWjhORQWZopV1PiNU9U-16">
          <mxGeometry x="593.024740622506" y="-0.7774193548387061" width="98.23144453312052" height="98.23144453312052" as="geometry" />
        </mxCell>
        <mxCell id="spWjhORQWZopV1PiNU9U-8" value="CloudWatch" style="text;html=1;align=center;verticalAlign=middle;resizable=0;points=[];autosize=1;strokeColor=none;fillColor=none;" vertex="1" parent="spWjhORQWZopV1PiNU9U-16">
          <mxGeometry x="150.03870710295294" y="-55" width="90" height="30" as="geometry" />
        </mxCell>
        <mxCell id="spWjhORQWZopV1PiNU9U-9" value="SNS - Simple Notification Servece" style="text;html=1;align=center;verticalAlign=middle;resizable=0;points=[];autosize=1;strokeColor=none;fillColor=none;" vertex="1" parent="spWjhORQWZopV1PiNU9U-16">
          <mxGeometry x="283.2178770949721" y="-55" width="210" height="30" as="geometry" />
        </mxCell>
        <mxCell id="spWjhORQWZopV1PiNU9U-11" value="Notification for Email" style="text;html=1;align=center;verticalAlign=middle;resizable=0;points=[];autosize=1;strokeColor=none;fillColor=none;" vertex="1" parent="spWjhORQWZopV1PiNU9U-16">
          <mxGeometry x="560.2809257781325" y="-55" width="130" height="30" as="geometry" />
        </mxCell>
        <mxCell id="spWjhORQWZopV1PiNU9U-12" style="edgeStyle=orthogonalEdgeStyle;rounded=0;orthogonalLoop=1;jettySize=auto;html=1;entryX=0.5;entryY=1;entryDx=0;entryDy=0;entryPerimeter=0;" edge="1" parent="spWjhORQWZopV1PiNU9U-16" source="spWjhORQWZopV1PiNU9U-3" target="spWjhORQWZopV1PiNU9U-1">
          <mxGeometry relative="1" as="geometry" />
        </mxCell>
        <mxCell id="spWjhORQWZopV1PiNU9U-14" style="edgeStyle=orthogonalEdgeStyle;rounded=0;orthogonalLoop=1;jettySize=auto;html=1;entryX=0;entryY=0.5;entryDx=0;entryDy=0;entryPerimeter=0;" edge="1" parent="spWjhORQWZopV1PiNU9U-16" source="spWjhORQWZopV1PiNU9U-5" target="spWjhORQWZopV1PiNU9U-6">
          <mxGeometry relative="1" as="geometry">
            <Array as="points">
              <mxPoint x="339" y="47" />
              <mxPoint x="339" y="47" />
            </Array>
          </mxGeometry>
        </mxCell>
      </root>
    </mxGraphModel>
  </diagram>
</mxfile>
